<svg id="icon-transport" xmlns="http://www.w3.org/2000/svg" width="37" height="37" viewBox="0 0 37 37">
  <path id="Path_205" data-name="Path 205" d="M0,0H37V37H0Z" fill="none"/>
  <path id="Path_206" data-name="Path 206" d="M16.333,2C10.167,2,4,2.771,4,8.167V22.812a5.4,5.4,0,0,0,5.4,5.4L7.083,30.521v.771h3.438L13.6,28.208h5.812L22.5,31.292h3.083v-.771l-2.312-2.312a5.4,5.4,0,0,0,5.4-5.4V8.167C28.667,2.771,23.148,2,16.333,2ZM9.4,25.125a2.313,2.313,0,1,1,2.312-2.312A2.309,2.309,0,0,1,9.4,25.125Zm5.4-10.792H7.083V8.167h7.708Zm3.083,0V8.167h7.708v6.167Zm5.4,10.792a2.313,2.313,0,1,1,2.313-2.312A2.309,2.309,0,0,1,23.271,25.125Z" transform="translate(2.167 1.083)" fill="#0d335d"/>
</svg>
