<svg xmlns="http://www.w3.org/2000/svg" width="25.67" height="22.305" viewBox="0 0 25.67 22.305">
  <g id="icon-menu" transform="translate(-1.07 -3)">
    <path id="Path_212" data-name="Path 212" d="M25.888,13.3a.858.858,0,0,1-.5-.163L13.878,4.914,2.365,13.132a.858.858,0,0,1-1-1.39L13.38,3.164a.858.858,0,0,1,1,0l12.01,8.579a.858.858,0,0,1-.5,1.553Z" transform="translate(0 -0.001)" fill="#fff"/>
    <path id="Path_213" data-name="Path 213" d="M4.858,8.147A.858.858,0,0,1,4,7.289V3.858A.858.858,0,0,1,4.858,3H8.289a.858.858,0,1,1,0,1.716H5.716V7.289A.858.858,0,0,1,4.858,8.147Z" transform="translate(-0.416 0)" fill="#fff"/>
    <path id="Path_214" data-name="Path 214" d="M22.015,27.01H17.726a.858.858,0,0,1-.858-.858V20.147H11.721v6.005a.858.858,0,0,1-.858.858H6.574A2.574,2.574,0,0,1,4,24.437V15.858a.858.858,0,0,1,1.716,0v8.579a.858.858,0,0,0,.858.858h3.431V19.289a.858.858,0,0,1,.858-.858h6.863a.858.858,0,0,1,.858.858v6.005h3.431a.858.858,0,0,0,.858-.858V15.858a.858.858,0,0,1,1.716,0v8.579a2.574,2.574,0,0,1-2.574,2.574Z" transform="translate(-0.416 -1.706)" fill="#fff"/>
  </g>
</svg>
